REM DIRINDEX 1\2,1\3,1\4,1\5\6,1\5\7,1\8
REM DIRNAME folder01,folder02,folder03,folder04,folder05,folder06,folder07,folder08
TITLE ""
FILE "144 【144】Unit8 (1633 well-off_1644 burnout).mp3" MP3
  TRACK 01 AUDIO
    TITLE "0:"
    INDEX 01 00:00:00
  TRACK 02 AUDIO
    TITLE "2:cjc115_5612"
    INDEX 01 00:00:07
  TRACK 03 AUDIO
    TITLE "0:"
    INDEX 01 00:01:26
  TRACK 04 AUDIO
    TITLE "3:cjc115_5613"
    INDEX 01 00:01:36
  TRACK 05 AUDIO
    TITLE "0:"
    INDEX 01 00:02:57
  TRACK 06 AUDIO
    TITLE "4:cjc115_5614"
    INDEX 01 00:02:67
  TRACK 07 AUDIO
    TITLE "0:"
    INDEX 01 00:06:41
  TRACK 08 AUDIO
    TITLE "2:cjc115_5615"
    INDEX 01 00:07:51
  TRACK 09 AUDIO
    TITLE "0:"
    INDEX 01 00:08:64
  TRACK 10 AUDIO
    TITLE "3:cjc115_5616"
    INDEX 01 00:08:73
  TRACK 11 AUDIO
    TITLE "0:"
    INDEX 01 00:11:11
  TRACK 12 AUDIO
    TITLE "4:cjc115_5617"
    INDEX 01 00:11:17
  TRACK 13 AUDIO
    TITLE "0:"
    INDEX 01 00:14:11
  TRACK 14 AUDIO
    TITLE "2:cjc115_5618"
    INDEX 01 00:15:17
  TRACK 15 AUDIO
    TITLE "0:"
    INDEX 01 00:16:48
  TRACK 16 AUDIO
    TITLE "3:cjc115_5619"
    INDEX 01 00:16:55
  TRACK 17 AUDIO
    TITLE "0:"
    INDEX 01 00:18:09
  TRACK 18 AUDIO
    TITLE "4:cjc115_5620"
    INDEX 01 00:18:15
  TRACK 19 AUDIO
    TITLE "0:"
    INDEX 01 00:21:13
  TRACK 20 AUDIO
    TITLE "2:cjc115_5621"
    INDEX 01 00:22:23
  TRACK 21 AUDIO
    TITLE "0:"
    INDEX 01 00:23:44
  TRACK 22 AUDIO
    TITLE "3:cjc115_5622"
    INDEX 01 00:23:48
  TRACK 23 AUDIO
    TITLE "0:"
    INDEX 01 00:26:07
  TRACK 24 AUDIO
    TITLE "4:cjc115_5623"
    INDEX 01 00:26:13
  TRACK 25 AUDIO
    TITLE "0:"
    INDEX 01 00:29:23
  TRACK 26 AUDIO
    TITLE "2:cjc115_5624"
    INDEX 01 00:30:32
  TRACK 27 AUDIO
    TITLE "0:"
    INDEX 01 00:31:53
  TRACK 28 AUDIO
    TITLE "3:cjc115_5625"
    INDEX 01 00:31:61
  TRACK 29 AUDIO
    TITLE "0:"
    INDEX 01 00:33:07
  TRACK 30 AUDIO
    TITLE "4:cjc115_5626"
    INDEX 01 00:33:17
  TRACK 31 AUDIO
    TITLE "0:"
    INDEX 01 00:38:61
  TRACK 32 AUDIO
    TITLE "2:cjc115_5627"
    INDEX 01 00:39:72
  TRACK 33 AUDIO
    TITLE "0:"
    INDEX 01 00:41:32
  TRACK 34 AUDIO
    TITLE "3:cjc115_5628"
    INDEX 01 00:41:38
  TRACK 35 AUDIO
    TITLE "0:"
    INDEX 01 00:43:39
  TRACK 36 AUDIO
    TITLE "4:cjc115_5629"
    INDEX 01 00:43:44
  TRACK 37 AUDIO
    TITLE "0:"
    INDEX 01 00:47:05
  TRACK 38 AUDIO
    TITLE "2:cjc115_5630"
    INDEX 01 00:48:14
  TRACK 39 AUDIO
    TITLE "0:"
    INDEX 01 00:49:33
  TRACK 40 AUDIO
    TITLE "3:cjc115_5631"
    INDEX 01 00:49:41
  TRACK 41 AUDIO
    TITLE "0:"
    INDEX 01 00:52:55
  TRACK 42 AUDIO
    TITLE "4:cjc115_5632"
    INDEX 01 00:52:63
  TRACK 43 AUDIO
    TITLE "0:"
    INDEX 01 00:56:59
  TRACK 44 AUDIO
    TITLE "2:cjc115_5633"
    INDEX 01 00:57:68
  TRACK 45 AUDIO
    TITLE "0:"
    INDEX 01 00:59:10
  TRACK 46 AUDIO
    TITLE "3:cjc115_5634"
    INDEX 01 00:59:18
  TRACK 47 AUDIO
    TITLE "0:"
    INDEX 01 01:01:62
  TRACK 48 AUDIO
    TITLE "4:cjc115_5635"
    INDEX 01 01:01:70
  TRACK 49 AUDIO
    TITLE "0:"
    INDEX 01 01:05:32
  TRACK 50 AUDIO
    TITLE "2:cjc115_5636"
    INDEX 01 01:06:42
  TRACK 51 AUDIO
    TITLE "0:"
    INDEX 01 01:07:43
  TRACK 52 AUDIO
    TITLE "3:cjc115_5637"
    INDEX 01 01:07:53
  TRACK 53 AUDIO
    TITLE "0:"
    INDEX 01 01:09:69
  TRACK 54 AUDIO
    TITLE "4:cjc115_5638"
    INDEX 01 01:10:02
  TRACK 55 AUDIO
    TITLE "0:"
    INDEX 01 01:13:22
  TRACK 56 AUDIO
    TITLE "2:cjc115_5639"
    INDEX 01 01:14:35
  TRACK 57 AUDIO
    TITLE "0:"
    INDEX 01 01:15:56
  TRACK 58 AUDIO
    TITLE "3:cjc115_5640"
    INDEX 01 01:15:60
  TRACK 59 AUDIO
    TITLE "0:"
    INDEX 01 01:18:41
  TRACK 60 AUDIO
    TITLE "4:cjc115_5641"
    INDEX 01 01:18:49
  TRACK 61 AUDIO
    TITLE "0:"
    INDEX 01 01:21:39
  TRACK 62 AUDIO
    TITLE "2:cjc115_5642"
    INDEX 01 01:22:35
  TRACK 63 AUDIO
    TITLE "0:"
    INDEX 01 01:24:00
  TRACK 64 AUDIO
    TITLE "3:cjc115_5643"
    INDEX 01 01:24:10
  TRACK 65 AUDIO
    TITLE "0:"
    INDEX 01 01:25:60
  TRACK 66 AUDIO
    TITLE "4:cjc115_5644"
    INDEX 01 01:25:66
  TRACK 67 AUDIO
    TITLE "0:"
    INDEX 01 01:30:11
  TRACK 68 AUDIO
    TITLE "2:cjc115_5645"
    INDEX 01 01:31:20
  TRACK 69 AUDIO
    TITLE "0:"
    INDEX 01 01:32:37
  TRACK 70 AUDIO
    TITLE "3:cjc115_5646"
    INDEX 01 01:32:49
  TRACK 71 AUDIO
    TITLE "0:"
    INDEX 01 01:36:01
  TRACK 72 AUDIO
    TITLE "4:cjc115_5647"
    INDEX 01 01:36:09
  TRACK 73 AUDIO
    TITLE "0:"
    INDEX 01 01:39:37
